<svg xmlns="http://www.w3.org/2000/svg" shape-rendering="geometricPrecision" text-rendering="geometricPrecision" image-rendering="optimizeQuality" fill-rule="evenodd" clip-rule="evenodd" viewBox="0 0 512 448.092"><path fill="#FB5541" fill-rule="nonzero" d="M151.727 259.114l-47.29-171.245a16.321 16.321 0 01-.994-5.63c0-9.039 7.335-16.374 16.374-16.374h375.844c1.29.039 2.598.19 3.903.513 8.76 2.154 14.114 11.003 11.959 19.763l-42.37 171.42c-1.324 7.708-8.045 13.578-16.133 13.578H167.46v-.05c-7.16.004-13.734-4.741-15.733-11.975z"/><path fill="#FB5541" d="M119.817 82.239l47.643 172.527h285.56l42.641-172.527z"/><path fill="#333" d="M400.109 368.067c22.101 0 40.012 17.911 40.012 40.013 0 22.097-17.911 40.012-40.012 40.012-22.098 0-40.013-17.915-40.013-40.012 0-22.102 17.915-40.013 40.013-40.013zm-175.424 0c22.097 0 40.013 17.911 40.013 40.013 0 22.097-17.916 40.012-40.013 40.012-22.101 0-40.016-17.915-40.016-40.012 0-22.102 17.915-40.013 40.016-40.013z"/><path fill="#B73E30" fill-rule="nonzero" d="M225.838 139.095c-.419-6.329 4.369-11.807 10.698-12.227 6.329-.419 11.807 4.369 12.227 10.697l4.115 61.159c.42 6.329-4.368 11.808-10.697 12.227-6.329.42-11.807-4.368-12.227-10.697l-4.116-61.159zm150.624-1.53c.419-6.328 5.898-11.116 12.227-10.697 6.329.42 11.116 5.898 10.697 12.227l-4.116 61.159c-.419 6.329-5.898 11.117-12.227 10.697-6.329-.419-11.116-5.898-10.697-12.227l4.116-61.159zm-75.359.765c0-6.352 5.157-11.508 11.509-11.508 6.353 0 11.509 5.156 11.509 11.508v61.159c0 6.352-5.156 11.509-11.509 11.509-6.352 0-11.509-5.157-11.509-11.509V138.33z"/><path fill="#484848" fill-rule="nonzero" d="M16.37 32.74C7.331 32.74 0 25.409 0 16.37 0 7.331 7.331 0 16.37 0h42.603l1.635.082C75.49.353 89.034 3.27 100.426 10.36c12.468 7.758 21.775 19.86 26.687 37.927 16.553 70.979 39.349 142.07 56.387 213.067 7.105 28.085 12.961 42.545 22.167 48.73 8.034 5.397 21.336 6.547 42.272 6.473 8.516-.027 16.817-.202 25.329-.202h175.209c9.04 0 16.37 7.331 16.37 16.37 0 9.04-7.33 16.37-16.37 16.37H272.499c-8.092 0-16.033.059-24.121.074-27.615.074-45.895-1.91-60.875-11.975-17.356-11.656-26.5-31.462-35.703-67.915L95.522 56.853c-2.543-9.362-6.83-15.299-12.359-18.739-5.929-3.689-13.827-5.242-22.963-5.42l-1.227.046H16.37z"/><path fill="#333" fill-rule="nonzero" d="M0 16.37C0 7.331 7.331 0 16.37 0h42.603l1.635.082C75.49.353 89.034 3.27 100.426 10.36c12.468 7.758 21.775 19.86 26.687 37.927 16.553 70.979 39.349 142.07 56.387 213.067 7.105 28.085 12.961 42.545 22.167 48.73 8.045 5.405 21.375 6.551 42.366 6.473 8.472-.027 16.735-.202 25.203-.202h175.241c9.04 0 16.37 7.331 16.37 16.37H260.248c-62.622 1.103-76.286-2.865-92.59-67.41L111.318 52.57c-7.459-27.436-27.149-36.052-52.345-36.2H0z"/></svg>